<svg xmlns="http://www.w3.org/2000/svg" width="20" height="21" viewBox="0 0 20 21" fill="none">
  <path
    d="M16.875 6.125H15.625V4.25C15.625 3.75272 15.4275 3.27581 15.0758 2.92417C14.7242 2.57254 14.2473 2.375 13.75 2.375H3.125C2.62772 2.375 2.15081 2.57254 1.79917 2.92417C1.44754 3.27581 1.25 3.75272 1.25 4.25V16.75C1.25 17.2473 1.44754 17.7242 1.79917 18.0758C2.15081 18.4275 2.62772 18.625 3.125 18.625H16.5625C17.1427 18.625 17.6991 18.3945 18.1093 17.9843C18.5195 17.5741 18.75 17.0177 18.75 16.4375V8C18.75 7.50272 18.5525 7.02581 18.2008 6.67417C17.8492 6.32254 17.3723 6.125 16.875 6.125ZM12.5 14.25H4.375C4.20924 14.25 4.05027 14.1842 3.93306 14.0669C3.81585 13.9497 3.75 13.7908 3.75 13.625C3.75 13.4592 3.81585 13.3003 3.93306 13.1831C4.05027 13.0658 4.20924 13 4.375 13H12.5C12.6658 13 12.8247 13.0658 12.9419 13.1831C13.0592 13.3003 13.125 13.4592 13.125 13.625C13.125 13.7908 13.0592 13.9497 12.9419 14.0669C12.8247 14.1842 12.6658 14.25 12.5 14.25ZM12.5 11.125H4.375C4.20924 11.125 4.05027 11.0592 3.93306 10.9419C3.81585 10.8247 3.75 10.6658 3.75 10.5C3.75 10.3342 3.81585 10.1753 3.93306 10.0581C4.05027 9.94085 4.20924 9.875 4.375 9.875H12.5C12.6658 9.875 12.8247 9.94085 12.9419 10.0581C13.0592 10.1753 13.125 10.3342 13.125 10.5C13.125 10.6658 13.0592 10.8247 12.9419 10.9419C12.8247 11.0592 12.6658 11.125 12.5 11.125ZM12.5 8H6.25C6.08424 8 5.92527 7.93415 5.80806 7.81694C5.69085 7.69973 5.625 7.54076 5.625 7.375C5.625 7.20924 5.69085 7.05027 5.80806 6.93306C5.92527 6.81585 6.08424 6.75 6.25 6.75H12.5C12.6658 6.75 12.8247 6.81585 12.9419 6.93306C13.0592 7.05027 13.125 7.20924 13.125 7.375C13.125 7.54076 13.0592 7.69973 12.9419 7.81694C12.8247 7.93415 12.6658 8 12.5 8ZM17.5 16.4375C17.5 16.6861 17.4012 16.9246 17.2254 17.1004C17.0496 17.2762 16.8111 17.375 16.5625 17.375C16.3139 17.375 16.0754 17.2762 15.8996 17.1004C15.7238 16.9246 15.625 16.6861 15.625 16.4375V7.375H16.875C17.0408 7.375 17.1997 7.44085 17.3169 7.55806C17.4342 7.67527 17.5 7.83424 17.5 8V16.4375Z"
    fill="#D0DFFF" />
</svg>